PathFileType	4	(X/Y/Z)	Patient4_TMGait_0pt3_03_left_05.trc.trc
DataRate	CameraRate	NumFrames	NumMarkers	Units	OrigDataRate	OrigDataStartFrame	OrigNumFrames
53.231939163498	53.231939163498	4	33	mm	53.231939163498	1	       141
Frame#	Time	Sacral			L.Shoulder			Chest			R.Shoulder			Neck			R.ASIS			L.ASIS			R.Thigh.Superior			R.Thigh.Lateral			R.Thigh.Inferior			R.Patella			L.Thigh.Superior			L.Thigh.Lateral			L.Thigh.Inferior			L.Patella			L.Shank.Superior			L.Shank.Lateral			L.Shank.Inferior			R.Shank.Superior			R.Shank.Lateral			R.Shank.Inferior			R.Heel			R.Midfoot.Superior			R.Midfoot.Lateral			R.Toe			L.Heel			L.Midfoot.Lateral			L.Midfoot.Superior			L.Toe			L.Elbow			L.Wrist			R.Elbow			R.Wrist			
		X1	Y1	Z1	X2	Y2	Z2	X3	Y3	Z3	X4	Y4	Z4	X5	Y5	Z5	X6	Y6	Z6	X7	Y7	Z7	X8	Y8	Z8	X9	Y9	Z9	X10	Y10	Z10	X11	Y11	Z11	X12	Y12	Z12	X13	Y13	Z13	X14	Y14	Z14	X15	Y15	Z15	X16	Y16	Z16	X17	Y17	Z17	X18	Y18	Z18	X19	Y19	Z19	X20	Y20	Z20	X21	Y21	Z21	X22	Y22	Z22	X23	Y23	Z23	X24	Y24	Z24	X25	Y25	Z25	X26	Y26	Z26	X27	Y27	Z27	X28	Y28	Z28	X29	Y29	Z29	X30	Y30	Z30	X31	Y31	Z31	X32	Y32	Z32	X33	Y33	Z33	

1	8.400000000000	775.079798672111	998.883361401179	578.156683582344	965.971267020388	1417.730381473089	384.998835955248	1062.856214584829	1353.844674599133	550.749199063186	977.270339574799	1432.273127936408	721.056652041317	937.929239764876	1484.662637851127	540.778336735830	1008.465749108434	930.688947630060	690.876930835596	990.072631547773	953.736221232016	416.733303121128	1058.150097505373	733.868069076536	645.828866848867	981.293053840287	616.617969653611	696.478213751928	1059.988775743316	572.701880314182	611.779652281766	1063.457355959784	476.774986990980	612.773948170905	1057.021869312958	752.770402543684	446.355656167227	997.808517340027	632.818569105366	365.768856880512	1090.506125726867	556.891180215067	430.956966021216	1089.094427450739	466.196360216050	418.302517867269	1013.027129366541	411.688753913882	403.836739354234	865.850139691180	394.245854728484	356.246285421035	837.297220217458	262.067549733727	396.716256922612	1017.587594795245	391.377411504109	614.102921714799	932.025619031188	295.395695558999	671.736027107782	956.203816798306	200.337404311792	601.917743730756	798.357442906491	47.792780078932	567.818915957486	972.560071481481	97.992486501646	604.138367310370	882.015414637168	38.858515837611	640.892845429624	1090.141520668812	39.525303714789	630.192854729155	642.825820683405	225.093416972129	438.469839569688	686.832245024282	178.055264221656	350.472242207250	792.731613208629	164.126026026185	364.812563055003	846.109428644660	43.501477523388	320.654218707959	975.258524056411	1057.972696511669	282.115401067752	1078.481862589860	817.941233809923	276.497952610781	902.103578474009	1097.417612297469	857.591800786650	972.610063182208	847.852765138231	900.685006744973	
2	8.418785714286	773.043095530750	997.881089526438	580.505101336395	963.871830671092	1416.261776749199	386.010149162003	1061.883141563698	1352.200945115558	551.045953794869	978.102753892601	1430.999769632570	722.069429856706	937.214846532223	1483.473936443093	541.860640288169	1006.707836649895	929.563647857007	692.299983490546	986.515537784144	952.006993914476	418.659889452787	1056.726897482835	733.143811213513	647.866224535447	980.265630585215	615.704645850801	698.096695893805	1059.476898139488	572.016669183154	613.669060268857	1062.932431653987	475.605470068439	614.699826612785	1056.701005845813	754.823447810514	446.758630813056	999.710715248868	634.210636025220	365.539086784552	1094.751388630575	560.385038266809	429.595866894505	1095.504937180711	469.733296905017	416.606871311764	1020.326276478787	413.687571686849	402.899086916498	872.903535788956	393.326628936930	357.294349480427	847.775052620121	260.555498696035	397.620466350181	1016.047604319249	390.364523072054	615.510169176968	928.960998175300	295.409951662040	672.628296241207	952.298451259440	200.264501978479	602.684371892492	792.816511233569	48.839437929230	567.909702104866	967.361930090636	98.209493590187	604.553658939682	876.431783726924	39.281276067488	640.984523929645	1084.469174461512	39.271535690240	630.300857417078	654.333837916533	217.143263328455	441.412664440999	699.162415056435	173.492175894032	352.314147039707	805.447109338781	163.319462358966	365.783137823772	862.779920249154	45.826848174177	318.991119198985	959.763130878139	1056.315863386924	285.690112155307	1046.117585496622	811.894717735568	283.251961231109	915.335767185961	1093.320526783899	858.314598198456	1001.848246308701	850.096151700799	897.725968033518	
3	8.437571428571	770.989460539821	996.915875193759	582.827700442836	961.664666719758	1414.872480607460	387.021476097085	1060.840314773399	1350.608654370311	551.306664094182	978.893190316442	1429.739588261014	723.074395245035	936.420655271826	1482.314863667943	542.945376225816	1004.927571538178	928.438703431894	693.657601449607	982.988151897533	950.392247614901	420.491245406436	1055.155851285416	732.365986895157	649.740645932145	979.037936542631	614.764427596439	699.583620377718	1058.680506332259	571.284186727847	615.372092751594	1062.094394070447	474.417337933888	616.421269362243	1056.284733004140	756.859990605921	447.168030085106	1001.487280083719	635.597648127942	365.341045897967	1098.745027212319	563.834922931305	428.350250076714	1101.666418236669	473.296911467031	415.045326433729	1027.552390472292	415.653098593600	401.955632310710	880.038869849846	391.972542001140	358.111711098762	858.677326116653	258.566213902509	398.221512473924	1014.223871167597	389.332975723672	616.755674365306	925.714830805292	295.360775262603	673.427105329274	948.188403568144	200.137721811333	603.347329389909	787.103357670521	49.793261840464	567.971961977242	961.978243295910	98.401323968603	604.927938337671	870.694492960676	39.664621899591	641.065198763813	1078.653055060566	39.037260726721	630.405491162633	666.483716903786	208.243188203570	443.784889049880	712.233181001723	168.093017405529	353.631811004862	818.851666029827	161.912982665157	366.350818446582	880.386091263175	47.762410435534	316.985897367833	943.798244789327	1055.005053593215	289.170011014895	1013.418591940932	806.451255022285	290.135036836015	929.026230305456	1089.336373678337	858.913922828248	1031.968342085174	853.070164223452	894.325564972772	
4	8.456357142857	768.964215850381	996.060376180767	585.042901240922	959.350232961307	1413.665381460753	388.000430040398	1059.725755013432	1349.157242490397	551.490010414139	979.619910291335	1428.556985987601	724.026420641266	935.532753855493	1481.252604774227	543.993980121503	1003.162502557161	927.362854627640	694.856357598464	979.587420835981	949.015005860737	422.108433691178	1053.394140926108	731.546284196106	651.304783527752	977.526940280372	613.832841321504	700.839258385968	1057.454339643284	570.512200781921	616.749499262178	1060.777745935437	473.251691503117	617.793472484768	1055.704261352269	758.824294206363	447.568236931624	1002.982827491955	636.950038875945	365.184385099058	1102.197848061389	567.123403148907	427.302329532343	1107.234610293561	476.813350693273	413.720439187150	1034.435259737694	417.535576824060	401.031263141151	887.119210858877	390.016723941049	358.545291469792	869.943267460235	255.961532828338	398.364273791070	1011.999358071881	388.318604170223	617.729447871454	922.267224417665	295.229584893743	674.069690791929	943.875266130593	199.944849855647	603.843860125546	781.305950033346	50.577948773444	568.003065349829	956.465680905549	98.549508930267	605.230512710865	864.886844250907	39.980939707745	641.130283611631	1072.782395008108	38.838466591635	630.501693781265	679.335750932700	198.223605941304	445.232991371281	726.139905256853	161.635211484009	354.147884004393	832.977178799607	159.694526142837	366.333981279183	898.962500619879	49.116995924675	314.613138643576	927.624223634802	1054.276547997260	292.408733190558	981.216849920031	802.092703276726	296.997112770757	943.016976429238	1085.690379082027	859.300759867815	1062.492388353481	857.174543067140	890.339590811942	
